<svg xmlns="http://www.w3.org/2000/svg" width="128" height="128" viewBox="0 0 64 64" shape-rendering="crispEdges"><rect x="24" y="1" width="16" height="1" fill="#674949"/><rect x="21" y="2" width="3" height="1" fill="#674949"/><rect x="24" y="2" width="16" height="1" fill="#1b1119"/><rect x="40" y="2" width="3" height="1" fill="#674949"/><rect x="19" y="3" width="2" height="1" fill="#674949"/><rect x="21" y="3" width="22" height="1" fill="#1b1119"/><rect x="43" y="3" width="2" height="1" fill="#674949"/><rect x="17" y="4" width="2" height="1" fill="#674949"/><rect x="19" y="4" width="26" height="1" fill="#1b1119"/><rect x="45" y="4" width="2" height="1" fill="#674949"/><rect x="15" y="5" width="2" height="1" fill="#674949"/><rect x="17" y="5" width="30" height="1" fill="#1b1119"/><rect x="47" y="5" width="2" height="1" fill="#674949"/><rect x="14" y="6" width="1" height="1" fill="#674949"/><rect x="15" y="6" width="34" height="1" fill="#1b1119"/><rect x="49" y="6" width="1" height="1" fill="#674949"/><rect x="12" y="7" width="1" height="1" fill="#3b7a33"/><rect x="13" y="7" width="1" height="1" fill="#674949"/><rect x="14" y="7" width="14" height="1" fill="#1b1119"/><rect x="28" y="7" width="4" height="1" fill="#0d0b0d"/><rect x="32" y="7" width="4" height="1" fill="#1b1119"/><rect x="36" y="7" width="4" height="1" fill="#0d0b0d"/><rect x="40" y="7" width="10" height="1" fill="#1b1119"/><rect x="50" y="7" width="2" height="1" fill="#674949"/><rect x="11" y="8" width="2" height="1" fill="#3b7a33"/><rect x="13" y="8" width="15" height="1" fill="#1b1119"/><rect x="28" y="8" width="4" height="1" fill="#0d0b0d"/><rect x="32" y="8" width="4" height="1" fill="#1b1119"/><rect x="36" y="8" width="4" height="1" fill="#0d0b0d"/><rect x="40" y="8" width="11" height="1" fill="#1b1119"/><rect x="51" y="8" width="2" height="1" fill="#674949"/><rect x="10" y="9" width="1" height="1" fill="#3b7a33"/><rect x="11" y="9" width="1" height="1" fill="#57a64a"/><rect x="12" y="9" width="1" height="1" fill="#3b7a33"/><rect x="13" y="9" width="15" height="1" fill="#1b1119"/><rect x="28" y="9" width="4" height="1" fill="#0d0b0d"/><rect x="32" y="9" width="4" height="1" fill="#1b1119"/><rect x="36" y="9" width="4" height="1" fill="#0d0b0d"/><rect x="40" y="9" width="13" height="1" fill="#1b1119"/><rect x="53" y="9" width="1" height="1" fill="#674949"/><rect x="9" y="10" width="1" height="1" fill="#3b7a33"/><rect x="10" y="10" width="2" height="1" fill="#57a64a"/><rect x="12" y="10" width="1" height="1" fill="#3b7a33"/><rect x="13" y="10" width="15" height="1" fill="#1b1119"/><rect x="28" y="10" width="4" height="1" fill="#0d0b0d"/><rect x="32" y="10" width="4" height="1" fill="#1b1119"/><rect x="36" y="10" width="4" height="1" fill="#0d0b0d"/><rect x="40" y="10" width="14" height="1" fill="#1b1119"/><rect x="54" y="10" width="1" height="1" fill="#674949"/><rect x="8" y="11" width="1" height="1" fill="#3b7a33"/><rect x="9" y="11" width="3" height="1" fill="#57a64a"/><rect x="12" y="11" width="1" height="1" fill="#3b7a33"/><rect x="13" y="11" width="7" height="1" fill="#1b1119"/><rect x="20" y="11" width="8" height="1" fill="#0d0b0d"/><rect x="28" y="11" width="4" height="1" fill="#4d4560"/><rect x="32" y="11" width="4" height="1" fill="#0d0b0d"/><rect x="36" y="11" width="4" height="1" fill="#221d29"/><rect x="40" y="11" width="4" height="1" fill="#0d0b0d"/><rect x="44" y="11" width="11" height="1" fill="#1b1119"/><rect x="55" y="11" width="1" height="1" fill="#674949"/><rect x="7" y="12" width="2" height="1" fill="#3b7a33"/><rect x="9" y="12" width="3" height="1" fill="#57a64a"/><rect x="12" y="12" width="1" height="1" fill="#3b7a33"/><rect x="13" y="12" width="7" height="1" fill="#1b1119"/><rect x="20" y="12" width="8" height="1" fill="#0d0b0d"/><rect x="28" y="12" width="4" height="1" fill="#4d4560"/><rect x="32" y="12" width="4" height="1" fill="#0d0b0d"/><rect x="36" y="12" width="4" height="1" fill="#221d29"/><rect x="40" y="12" width="4" height="1" fill="#0d0b0d"/><rect x="44" y="12" width="11" height="1" fill="#1b1119"/><rect x="55" y="12" width="2" height="1" fill="#674949"/><rect x="7" y="13" width="1" height="1" fill="#3b7a33"/><rect x="8" y="13" width="4" height="1" fill="#57a64a"/><rect x="12" y="13" width="1" height="1" fill="#3b7a33"/><rect x="13" y="13" width="7" height="1" fill="#1b1119"/><rect x="20" y="13" width="8" height="1" fill="#0d0b0d"/><rect x="28" y="13" width="4" height="1" fill="#4d4560"/><rect x="32" y="13" width="4" height="1" fill="#0d0b0d"/><rect x="36" y="13" width="4" height="1" fill="#221d29"/><rect x="40" y="13" width="4" height="1" fill="#0d0b0d"/><rect x="44" y="13" width="12" height="1" fill="#1b1119"/><rect x="56" y="13" width="1" height="1" fill="#674949"/><rect x="6" y="14" width="1" height="1" fill="#3b7a33"/><rect x="7" y="14" width="5" height="1" fill="#57a64a"/><rect x="12" y="14" width="1" height="1" fill="#3b7a33"/><rect x="13" y="14" width="7" height="1" fill="#1b1119"/><rect x="20" y="14" width="8" height="1" fill="#0d0b0d"/><rect x="28" y="14" width="4" height="1" fill="#4d4560"/><rect x="32" y="14" width="4" height="1" fill="#0d0b0d"/><rect x="36" y="14" width="4" height="1" fill="#221d29"/><rect x="40" y="14" width="4" height="1" fill="#0d0b0d"/><rect x="44" y="14" width="13" height="1" fill="#1b1119"/><rect x="57" y="14" width="1" height="1" fill="#674949"/><rect x="5" y="15" width="1" height="1" fill="#3b7a33"/><rect x="6" y="15" width="6" height="1" fill="#57a64a"/><rect x="12" y="15" width="1" height="1" fill="#3b7a33"/><rect x="13" y="15" width="3" height="1" fill="#1b1119"/><rect x="16" y="15" width="4" height="1" fill="#0d0b0d"/><rect x="20" y="15" width="4" height="1" fill="#4d4560"/><rect x="24" y="15" width="8" height="1" fill="#221d29"/><rect x="32" y="15" width="4" height="1" fill="#4d4560"/><rect x="36" y="15" width="4" height="1" fill="#221d29"/><rect x="40" y="15" width="8" height="1" fill="#0d0b0d"/><rect x="48" y="15" width="10" height="1" fill="#1b1119"/><rect x="58" y="15" width="1" height="1" fill="#674949"/><rect x="5" y="16" width="1" height="1" fill="#3b7a33"/><rect x="6" y="16" width="7" height="1" fill="#57a64a"/><rect x="13" y="16" width="3" height="1" fill="#1b1119"/><rect x="16" y="16" width="4" height="1" fill="#0d0b0d"/><rect x="20" y="16" width="4" height="1" fill="#4d4560"/><rect x="24" y="16" width="8" height="1" fill="#221d29"/><rect x="32" y="16" width="4" height="1" fill="#4d4560"/><rect x="36" y="16" width="4" height="1" fill="#221d29"/><rect x="40" y="16" width="8" height="1" fill="#0d0b0d"/><rect x="48" y="16" width="10" height="1" fill="#1b1119"/><rect x="58" y="16" width="1" height="1" fill="#674949"/><rect x="4" y="17" width="1" height="1" fill="#3b7a33"/><rect x="5" y="17" width="8" height="1" fill="#57a64a"/><rect x="13" y="17" width="3" height="1" fill="#1b1119"/><rect x="16" y="17" width="4" height="1" fill="#0d0b0d"/><rect x="20" y="17" width="4" height="1" fill="#4d4560"/><rect x="24" y="17" width="8" height="1" fill="#221d29"/><rect x="32" y="17" width="4" height="1" fill="#4d4560"/><rect x="36" y="17" width="4" height="1" fill="#221d29"/><rect x="40" y="17" width="8" height="1" fill="#0d0b0d"/><rect x="48" y="17" width="11" height="1" fill="#1b1119"/><rect x="59" y="17" width="1" height="1" fill="#674949"/><rect x="4" y="18" width="1" height="1" fill="#3b7a33"/><rect x="5" y="18" width="8" height="1" fill="#57a64a"/><rect x="13" y="18" width="1" height="1" fill="#3b7a33"/><rect x="14" y="18" width="2" height="1" fill="#1b1119"/><rect x="16" y="18" width="4" height="1" fill="#0d0b0d"/><rect x="20" y="18" width="4" height="1" fill="#4d4560"/><rect x="24" y="18" width="8" height="1" fill="#221d29"/><rect x="32" y="18" width="4" height="1" fill="#4d4560"/><rect x="36" y="18" width="4" height="1" fill="#221d29"/><rect x="40" y="18" width="8" height="1" fill="#0d0b0d"/><rect x="48" y="18" width="11" height="1" fill="#1b1119"/><rect x="59" y="18" width="1" height="1" fill="#674949"/><rect x="3" y="19" width="1" height="1" fill="#3b7a33"/><rect x="4" y="19" width="9" height="1" fill="#57a64a"/><rect x="13" y="19" width="1" height="1" fill="#3b7a33"/><rect x="14" y="19" width="2" height="1" fill="#1b1119"/><rect x="16" y="19" width="4" height="1" fill="#0d0b0d"/><rect x="20" y="19" width="20" height="1" fill="#221d29"/><rect x="40" y="19" width="4" height="1" fill="#4d4560"/><rect x="44" y="19" width="4" height="1" fill="#221d29"/><rect x="48" y="19" width="4" height="1" fill="#0d0b0d"/><rect x="52" y="19" width="8" height="1" fill="#1b1119"/><rect x="60" y="19" width="1" height="1" fill="#674949"/><rect x="3" y="20" width="1" height="1" fill="#3b7a33"/><rect x="4" y="20" width="8" height="1" fill="#57a64a"/><rect x="12" y="20" width="1" height="1" fill="#3b7a33"/><rect x="13" y="20" width="3" height="1" fill="#1b1119"/><rect x="16" y="20" width="4" height="1" fill="#0d0b0d"/><rect x="20" y="20" width="20" height="1" fill="#221d29"/><rect x="40" y="20" width="4" height="1" fill="#4d4560"/><rect x="44" y="20" width="4" height="1" fill="#221d29"/><rect x="48" y="20" width="4" height="1" fill="#0d0b0d"/><rect x="52" y="20" width="8" height="1" fill="#1b1119"/><rect x="60" y="20" width="1" height="1" fill="#674949"/><rect x="2" y="21" width="1" height="1" fill="#3b7a33"/><rect x="3" y="21" width="9" height="1" fill="#57a64a"/><rect x="12" y="21" width="1" height="1" fill="#3b7a33"/><rect x="13" y="21" width="3" height="1" fill="#1b1119"/><rect x="16" y="21" width="4" height="1" fill="#0d0b0d"/><rect x="20" y="21" width="20" height="1" fill="#221d29"/><rect x="40" y="21" width="4" height="1" fill="#4d4560"/><rect x="44" y="21" width="4" height="1" fill="#221d29"/><rect x="48" y="21" width="4" height="1" fill="#0d0b0d"/><rect x="52" y="21" width="9" height="1" fill="#1b1119"/><rect x="61" y="21" width="1" height="1" fill="#674949"/><rect x="2" y="22" width="1" height="1" fill="#3b7a33"/><rect x="3" y="22" width="1" height="1" fill="#57a64a"/><rect x="4" y="22" width="5" height="1" fill="#fff8e1"/><rect x="9" y="22" width="2" height="1" fill="#57a64a"/><rect x="11" y="22" width="1" height="1" fill="#3b7a33"/><rect x="12" y="22" width="4" height="1" fill="#1b1119"/><rect x="16" y="22" width="4" height="1" fill="#0d0b0d"/><rect x="20" y="22" width="20" height="1" fill="#221d29"/><rect x="40" y="22" width="4" height="1" fill="#4d4560"/><rect x="44" y="22" width="4" height="1" fill="#221d29"/><rect x="48" y="22" width="4" height="1" fill="#0d0b0d"/><rect x="52" y="22" width="9" height="1" fill="#1b1119"/><rect x="61" y="22" width="1" height="1" fill="#674949"/><rect x="2" y="23" width="1" height="1" fill="#3b7a33"/><rect x="3" y="23" width="2" height="1" fill="#57a64a"/><rect x="5" y="23" width="4" height="1" fill="#fff8e1"/><rect x="9" y="23" width="2" height="1" fill="#57a64a"/><rect x="11" y="23" width="1" height="1" fill="#3b7a33"/><rect x="12" y="23" width="4" height="1" fill="#0d0b0d"/><rect x="16" y="23" width="28" height="1" fill="#221d29"/><rect x="44" y="23" width="4" height="1" fill="#4d4560"/><rect x="48" y="23" width="4" height="1" fill="#0d0b0d"/><rect x="52" y="23" width="9" height="1" fill="#1b1119"/><rect x="61" y="23" width="1" height="1" fill="#674949"/><rect x="1" y="24" width="1" height="1" fill="#3b7a33"/><rect x="2" y="24" width="2" height="1" fill="#57a64a"/><rect x="4" y="24" width="4" height="1" fill="#fff8e1"/><rect x="8" y="24" width="2" height="1" fill="#57a64a"/><rect x="10" y="24" width="1" height="1" fill="#3b7a33"/><rect x="11" y="24" width="1" height="1" fill="#1b1119"/><rect x="12" y="24" width="4" height="1" fill="#0d0b0d"/><rect x="16" y="24" width="28" height="1" fill="#221d29"/><rect x="44" y="24" width="4" height="1" fill="#4d4560"/><rect x="48" y="24" width="4" height="1" fill="#0d0b0d"/><rect x="52" y="24" width="10" height="1" fill="#1b1119"/><rect x="62" y="24" width="1" height="1" fill="#674949"/><rect x="1" y="25" width="1" height="1" fill="#3b7a33"/><rect x="2" y="25" width="2" height="1" fill="#57a64a"/><rect x="4" y="25" width="5" height="1" fill="#fff8e1"/><rect x="9" y="25" width="1" height="1" fill="#57a64a"/><rect x="10" y="25" width="1" height="1" fill="#3b7a33"/><rect x="11" y="25" width="1" height="1" fill="#1b1119"/><rect x="12" y="25" width="4" height="1" fill="#0d0b0d"/><rect x="16" y="25" width="28" height="1" fill="#221d29"/><rect x="44" y="25" width="4" height="1" fill="#4d4560"/><rect x="48" y="25" width="4" height="1" fill="#0d0b0d"/><rect x="52" y="25" width="10" height="1" fill="#1b1119"/><rect x="62" y="25" width="1" height="1" fill="#674949"/><rect x="1" y="26" width="1" height="1" fill="#3b7a33"/><rect x="2" y="26" width="4" height="1" fill="#57a64a"/><rect x="6" y="26" width="1" height="1" fill="#fff8e1"/><rect x="7" y="26" width="3" height="1" fill="#57a64a"/><rect x="10" y="26" width="1" height="1" fill="#3b7a33"/><rect x="11" y="26" width="1" height="1" fill="#1b1119"/><rect x="12" y="26" width="4" height="1" fill="#0d0b0d"/><rect x="16" y="26" width="28" height="1" fill="#221d29"/><rect x="44" y="26" width="4" height="1" fill="#4d4560"/><rect x="48" y="26" width="4" height="1" fill="#0d0b0d"/><rect x="52" y="26" width="10" height="1" fill="#1b1119"/><rect x="62" y="26" width="1" height="1" fill="#674949"/><rect x="1" y="27" width="1" height="1" fill="#3b7a33"/><rect x="2" y="27" width="2" height="1" fill="#57a64a"/><rect x="4" y="27" width="3" height="1" fill="#fff8e1"/><rect x="7" y="27" width="2" height="1" fill="#57a64a"/><rect x="9" y="27" width="1" height="1" fill="#3b7a33"/><rect x="10" y="27" width="6" height="1" fill="#1b1119"/><rect x="16" y="27" width="4" height="1" fill="#0d0b0d"/><rect x="20" y="27" width="4" height="1" fill="#221d29"/><rect x="24" y="27" width="8" height="1" fill="#f0d5c4"/><rect x="32" y="27" width="4" height="1" fill="#221d29"/><rect x="36" y="27" width="4" height="1" fill="#f0d5c4"/><rect x="40" y="27" width="4" height="1" fill="#4d4560"/><rect x="44" y="27" width="4" height="1" fill="#0d0b0d"/><rect x="48" y="27" width="14" height="1" fill="#1b1119"/><rect x="62" y="27" width="1" height="1" fill="#674949"/><rect x="1" y="28" width="1" height="1" fill="#3b7a33"/><rect x="2" y="28" width="1" height="1" fill="#57a64a"/><rect x="3" y="28" width="1" height="1" fill="#fff8e1"/><rect x="4" y="28" width="1" height="1" fill="#57a64a"/><rect x="5" y="28" width="3" height="1" fill="#fff8e1"/><rect x="8" y="28" width="1" height="1" fill="#57a64a"/><rect x="9" y="28" width="1" height="1" fill="#3b7a33"/><rect x="10" y="28" width="6" height="1" fill="#1b1119"/><rect x="16" y="28" width="4" height="1" fill="#0d0b0d"/><rect x="20" y="28" width="4" height="1" fill="#221d29"/><rect x="24" y="28" width="8" height="1" fill="#f0d5c4"/><rect x="32" y="28" width="4" height="1" fill="#221d29"/><rect x="36" y="28" width="4" height="1" fill="#f0d5c4"/><rect x="40" y="28" width="4" height="1" fill="#4d4560"/><rect x="44" y="28" width="4" height="1" fill="#0d0b0d"/><rect x="48" y="28" width="14" height="1" fill="#1b1119"/><rect x="62" y="28" width="1" height="1" fill="#674949"/><rect x="1" y="29" width="1" height="1" fill="#3b7a33"/><rect x="2" y="29" width="1" height="1" fill="#57a64a"/><rect x="3" y="29" width="1" height="1" fill="#fff8e1"/><rect x="4" y="29" width="3" height="1" fill="#57a64a"/><rect x="7" y="29" width="1" height="1" fill="#fff8e1"/><rect x="8" y="29" width="1" height="1" fill="#57a64a"/><rect x="9" y="29" width="1" height="1" fill="#3b7a33"/><rect x="10" y="29" width="6" height="1" fill="#1b1119"/><rect x="16" y="29" width="4" height="1" fill="#0d0b0d"/><rect x="20" y="29" width="4" height="1" fill="#221d29"/><rect x="24" y="29" width="8" height="1" fill="#f0d5c4"/><rect x="32" y="29" width="4" height="1" fill="#221d29"/><rect x="36" y="29" width="4" height="1" fill="#f0d5c4"/><rect x="40" y="29" width="4" height="1" fill="#4d4560"/><rect x="44" y="29" width="4" height="1" fill="#0d0b0d"/><rect x="48" y="29" width="14" height="1" fill="#1b1119"/><rect x="62" y="29" width="1" height="1" fill="#674949"/><rect x="1" y="30" width="1" height="1" fill="#3b7a33"/><rect x="2" y="30" width="1" height="1" fill="#57a64a"/><rect x="3" y="30" width="1" height="1" fill="#fff8e1"/><rect x="4" y="30" width="3" height="1" fill="#57a64a"/><rect x="7" y="30" width="1" height="1" fill="#fff8e1"/><rect x="8" y="30" width="1" height="1" fill="#57a64a"/><rect x="9" y="30" width="1" height="1" fill="#3b7a33"/><rect x="10" y="30" width="6" height="1" fill="#1b1119"/><rect x="16" y="30" width="4" height="1" fill="#0d0b0d"/><rect x="20" y="30" width="4" height="1" fill="#221d29"/><rect x="24" y="30" width="8" height="1" fill="#f0d5c4"/><rect x="32" y="30" width="4" height="1" fill="#221d29"/><rect x="36" y="30" width="4" height="1" fill="#f0d5c4"/><rect x="40" y="30" width="4" height="1" fill="#4d4560"/><rect x="44" y="30" width="4" height="1" fill="#0d0b0d"/><rect x="48" y="30" width="14" height="1" fill="#1b1119"/><rect x="62" y="30" width="1" height="1" fill="#674949"/><rect x="1" y="31" width="1" height="1" fill="#3b7a33"/><rect x="2" y="31" width="2" height="1" fill="#57a64a"/><rect x="4" y="31" width="4" height="1" fill="#fff8e1"/><rect x="8" y="31" width="1" height="1" fill="#57a64a"/><rect x="9" y="31" width="1" height="1" fill="#3b7a33"/><rect x="10" y="31" width="6" height="1" fill="#1b1119"/><rect x="16" y="31" width="4" height="1" fill="#0d0b0d"/><rect x="20" y="31" width="8" height="1" fill="#2b2130"/><rect x="28" y="31" width="8" height="1" fill="#f0d5c4"/><rect x="36" y="31" width="8" height="1" fill="#2b2130"/><rect x="44" y="31" width="4" height="1" fill="#0d0b0d"/><rect x="48" y="31" width="14" height="1" fill="#1b1119"/><rect x="62" y="31" width="1" height="1" fill="#674949"/><rect x="1" y="32" width="1" height="1" fill="#3b7a33"/><rect x="2" y="32" width="2" height="1" fill="#57a64a"/><rect x="4" y="32" width="2" height="1" fill="#fff8e1"/><rect x="6" y="32" width="3" height="1" fill="#57a64a"/><rect x="9" y="32" width="1" height="1" fill="#3b7a33"/><rect x="10" y="32" width="6" height="1" fill="#1b1119"/><rect x="16" y="32" width="4" height="1" fill="#0d0b0d"/><rect x="20" y="32" width="8" height="1" fill="#2b2130"/><rect x="28" y="32" width="8" height="1" fill="#f0d5c4"/><rect x="36" y="32" width="8" height="1" fill="#2b2130"/><rect x="44" y="32" width="4" height="1" fill="#0d0b0d"/><rect x="48" y="32" width="14" height="1" fill="#1b1119"/><rect x="62" y="32" width="1" height="1" fill="#674949"/><rect x="1" y="33" width="1" height="1" fill="#3b7a33"/><rect x="2" y="33" width="2" height="1" fill="#57a64a"/><rect x="4" y="33" width="4" height="1" fill="#fff8e1"/><rect x="8" y="33" width="1" height="1" fill="#57a64a"/><rect x="9" y="33" width="1" height="1" fill="#3b7a33"/><rect x="10" y="33" width="6" height="1" fill="#1b1119"/><rect x="16" y="33" width="4" height="1" fill="#0d0b0d"/><rect x="20" y="33" width="8" height="1" fill="#2b2130"/><rect x="28" y="33" width="8" height="1" fill="#f0d5c4"/><rect x="36" y="33" width="8" height="1" fill="#2b2130"/><rect x="44" y="33" width="4" height="1" fill="#0d0b0d"/><rect x="48" y="33" width="14" height="1" fill="#1b1119"/><rect x="62" y="33" width="1" height="1" fill="#674949"/><rect x="1" y="34" width="1" height="1" fill="#3b7a33"/><rect x="2" y="34" width="1" height="1" fill="#57a64a"/><rect x="3" y="34" width="3" height="1" fill="#fff8e1"/><rect x="6" y="34" width="1" height="1" fill="#57a64a"/><rect x="7" y="34" width="1" height="1" fill="#fff8e1"/><rect x="8" y="34" width="1" height="1" fill="#57a64a"/><rect x="9" y="34" width="1" height="1" fill="#3b7a33"/><rect x="10" y="34" width="6" height="1" fill="#1b1119"/><rect x="16" y="34" width="4" height="1" fill="#0d0b0d"/><rect x="20" y="34" width="8" height="1" fill="#2b2130"/><rect x="28" y="34" width="8" height="1" fill="#f0d5c4"/><rect x="36" y="34" width="8" height="1" fill="#2b2130"/><rect x="44" y="34" width="4" height="1" fill="#0d0b0d"/><rect x="48" y="34" width="14" height="1" fill="#1b1119"/><rect x="62" y="34" width="1" height="1" fill="#674949"/><rect x="1" y="35" width="1" height="1" fill="#3b7a33"/><rect x="2" y="35" width="3" height="1" fill="#57a64a"/><rect x="5" y="35" width="1" height="1" fill="#fff8e1"/><rect x="6" y="35" width="1" height="1" fill="#57a64a"/><rect x="7" y="35" width="1" height="1" fill="#fff8e1"/><rect x="8" y="35" width="1" height="1" fill="#57a64a"/><rect x="9" y="35" width="1" height="1" fill="#3b7a33"/><rect x="10" y="35" width="6" height="1" fill="#1b1119"/><rect x="16" y="35" width="4" height="1" fill="#0d0b0d"/><rect x="20" y="35" width="4" height="1" fill="#f0d5c4"/><rect x="24" y="35" width="4" height="1" fill="#2b2130"/><rect x="28" y="35" width="8" height="1" fill="#f0d5c4"/><rect x="36" y="35" width="4" height="1" fill="#2b2130"/><rect x="40" y="35" width="4" height="1" fill="#f0d5c4"/><rect x="44" y="35" width="4" height="1" fill="#0d0b0d"/><rect x="48" y="35" width="14" height="1" fill="#1b1119"/><rect x="62" y="35" width="1" height="1" fill="#674949"/><rect x="1" y="36" width="1" height="1" fill="#3b7a33"/><rect x="2" y="36" width="3" height="1" fill="#57a64a"/><rect x="5" y="36" width="1" height="1" fill="#fff8e1"/><rect x="6" y="36" width="1" height="1" fill="#57a64a"/><rect x="7" y="36" width="1" height="1" fill="#fff8e1"/><rect x="8" y="36" width="1" height="1" fill="#57a64a"/><rect x="9" y="36" width="1" height="1" fill="#3b7a33"/><rect x="10" y="36" width="6" height="1" fill="#1b1119"/><rect x="16" y="36" width="4" height="1" fill="#0d0b0d"/><rect x="20" y="36" width="4" height="1" fill="#f0d5c4"/><rect x="24" y="36" width="4" height="1" fill="#2b2130"/><rect x="28" y="36" width="8" height="1" fill="#f0d5c4"/><rect x="36" y="36" width="4" height="1" fill="#2b2130"/><rect x="40" y="36" width="4" height="1" fill="#f0d5c4"/><rect x="44" y="36" width="4" height="1" fill="#0d0b0d"/><rect x="48" y="36" width="14" height="1" fill="#1b1119"/><rect x="62" y="36" width="1" height="1" fill="#674949"/><rect x="1" y="37" width="1" height="1" fill="#3b7a33"/><rect x="2" y="37" width="4" height="1" fill="#57a64a"/><rect x="6" y="37" width="1" height="1" fill="#fff8e1"/><rect x="7" y="37" width="3" height="1" fill="#57a64a"/><rect x="10" y="37" width="1" height="1" fill="#3b7a33"/><rect x="11" y="37" width="5" height="1" fill="#1b1119"/><rect x="16" y="37" width="4" height="1" fill="#0d0b0d"/><rect x="20" y="37" width="4" height="1" fill="#f0d5c4"/><rect x="24" y="37" width="4" height="1" fill="#2b2130"/><rect x="28" y="37" width="8" height="1" fill="#f0d5c4"/><rect x="36" y="37" width="4" height="1" fill="#2b2130"/><rect x="40" y="37" width="4" height="1" fill="#f0d5c4"/><rect x="44" y="37" width="4" height="1" fill="#0d0b0d"/><rect x="48" y="37" width="14" height="1" fill="#1b1119"/><rect x="62" y="37" width="1" height="1" fill="#674949"/><rect x="1" y="38" width="1" height="1" fill="#3b7a33"/><rect x="2" y="38" width="8" height="1" fill="#57a64a"/><rect x="10" y="38" width="1" height="1" fill="#3b7a33"/><rect x="11" y="38" width="5" height="1" fill="#1b1119"/><rect x="16" y="38" width="4" height="1" fill="#0d0b0d"/><rect x="20" y="38" width="4" height="1" fill="#f0d5c4"/><rect x="24" y="38" width="4" height="1" fill="#2b2130"/><rect x="28" y="38" width="8" height="1" fill="#f0d5c4"/><rect x="36" y="38" width="4" height="1" fill="#2b2130"/><rect x="40" y="38" width="4" height="1" fill="#f0d5c4"/><rect x="44" y="38" width="4" height="1" fill="#0d0b0d"/><rect x="48" y="38" width="14" height="1" fill="#1b1119"/><rect x="62" y="38" width="1" height="1" fill="#674949"/><rect x="1" y="39" width="1" height="1" fill="#3b7a33"/><rect x="2" y="39" width="4" height="1" fill="#57a64a"/><rect x="6" y="39" width="3" height="1" fill="#fff8e1"/><rect x="9" y="39" width="1" height="1" fill="#57a64a"/><rect x="10" y="39" width="1" height="1" fill="#3b7a33"/><rect x="11" y="39" width="5" height="1" fill="#1b1119"/><rect x="16" y="39" width="8" height="1" fill="#0d0b0d"/><rect x="24" y="39" width="16" height="1" fill="#f0d5c4"/><rect x="40" y="39" width="8" height="1" fill="#0d0b0d"/><rect x="48" y="39" width="14" height="1" fill="#1b1119"/><rect x="62" y="39" width="1" height="1" fill="#674949"/><rect x="2" y="40" width="1" height="1" fill="#3b7a33"/><rect x="3" y="40" width="1" height="1" fill="#57a64a"/><rect x="4" y="40" width="3" height="1" fill="#fff8e1"/><rect x="7" y="40" width="1" height="1" fill="#57a64a"/><rect x="8" y="40" width="1" height="1" fill="#fff8e1"/><rect x="9" y="40" width="2" height="1" fill="#57a64a"/><rect x="11" y="40" width="1" height="1" fill="#3b7a33"/><rect x="12" y="40" width="4" height="1" fill="#1b1119"/><rect x="16" y="40" width="8" height="1" fill="#0d0b0d"/><rect x="24" y="40" width="16" height="1" fill="#f0d5c4"/><rect x="40" y="40" width="8" height="1" fill="#0d0b0d"/><rect x="48" y="40" width="13" height="1" fill="#1b1119"/><rect x="61" y="40" width="1" height="1" fill="#674949"/><rect x="2" y="41" width="1" height="1" fill="#3b7a33"/><rect x="3" y="41" width="1" height="1" fill="#57a64a"/><rect x="4" y="41" width="1" height="1" fill="#fff8e1"/><rect x="5" y="41" width="1" height="1" fill="#57a64a"/><rect x="6" y="41" width="2" height="1" fill="#fff8e1"/><rect x="8" y="41" width="1" height="1" fill="#57a64a"/><rect x="9" y="41" width="1" height="1" fill="#fff8e1"/><rect x="10" y="41" width="1" height="1" fill="#57a64a"/><rect x="11" y="41" width="1" height="1" fill="#3b7a33"/><rect x="12" y="41" width="4" height="1" fill="#1b1119"/><rect x="16" y="41" width="8" height="1" fill="#0d0b0d"/><rect x="24" y="41" width="16" height="1" fill="#f0d5c4"/><rect x="40" y="41" width="8" height="1" fill="#0d0b0d"/><rect x="48" y="41" width="13" height="1" fill="#1b1119"/><rect x="61" y="41" width="1" height="1" fill="#674949"/><rect x="2" y="42" width="1" height="1" fill="#3b7a33"/><rect x="3" y="42" width="2" height="1" fill="#57a64a"/><rect x="5" y="42" width="1" height="1" fill="#fff8e1"/><rect x="6" y="42" width="1" height="1" fill="#57a64a"/><rect x="7" y="42" width="1" height="1" fill="#fff8e1"/><rect x="8" y="42" width="1" height="1" fill="#57a64a"/><rect x="9" y="42" width="1" height="1" fill="#fff8e1"/><rect x="10" y="42" width="2" height="1" fill="#57a64a"/><rect x="12" y="42" width="1" height="1" fill="#3b7a33"/><rect x="13" y="42" width="3" height="1" fill="#1b1119"/><rect x="16" y="42" width="8" height="1" fill="#0d0b0d"/><rect x="24" y="42" width="16" height="1" fill="#f0d5c4"/><rect x="40" y="42" width="8" height="1" fill="#0d0b0d"/><rect x="48" y="42" width="13" height="1" fill="#1b1119"/><rect x="61" y="42" width="1" height="1" fill="#674949"/><rect x="3" y="43" width="1" height="1" fill="#3b7a33"/><rect x="4" y="43" width="1" height="1" fill="#57a64a"/><rect x="5" y="43" width="1" height="1" fill="#fff8e1"/><rect x="6" y="43" width="6" height="1" fill="#57a64a"/><rect x="12" y="43" width="1" height="1" fill="#3b7a33"/><rect x="13" y="43" width="3" height="1" fill="#0d0b0d"/><rect x="16" y="43" width="8" height="1" fill="#a9a9b4"/><rect x="24" y="43" width="16" height="1" fill="#0d0b0d"/><rect x="40" y="43" width="8" height="1" fill="#a9a9b4"/><rect x="48" y="43" width="4" height="1" fill="#0d0b0d"/><rect x="52" y="43" width="8" height="1" fill="#1b1119"/><rect x="60" y="43" width="1" height="1" fill="#674949"/><rect x="3" y="44" width="1" height="1" fill="#3b7a33"/><rect x="4" y="44" width="1" height="1" fill="#57a64a"/><rect x="5" y="44" width="1" height="1" fill="#fff8e1"/><rect x="6" y="44" width="3" height="1" fill="#57a64a"/><rect x="9" y="44" width="2" height="1" fill="#fff8e1"/><rect x="11" y="44" width="2" height="1" fill="#57a64a"/><rect x="13" y="44" width="1" height="1" fill="#3b7a33"/><rect x="14" y="44" width="2" height="1" fill="#0d0b0d"/><rect x="16" y="44" width="8" height="1" fill="#a9a9b4"/><rect x="24" y="44" width="16" height="1" fill="#0d0b0d"/><rect x="40" y="44" width="8" height="1" fill="#a9a9b4"/><rect x="48" y="44" width="4" height="1" fill="#0d0b0d"/><rect x="52" y="44" width="8" height="1" fill="#1b1119"/><rect x="60" y="44" width="1" height="1" fill="#674949"/><rect x="4" y="45" width="1" height="1" fill="#3b7a33"/><rect x="5" y="45" width="2" height="1" fill="#57a64a"/><rect x="7" y="45" width="4" height="1" fill="#fff8e1"/><rect x="11" y="45" width="2" height="1" fill="#57a64a"/><rect x="13" y="45" width="2" height="1" fill="#3b7a33"/><rect x="15" y="45" width="1" height="1" fill="#0d0b0d"/><rect x="16" y="45" width="8" height="1" fill="#a9a9b4"/><rect x="24" y="45" width="16" height="1" fill="#0d0b0d"/><rect x="40" y="45" width="8" height="1" fill="#a9a9b4"/><rect x="48" y="45" width="4" height="1" fill="#0d0b0d"/><rect x="52" y="45" width="7" height="1" fill="#1b1119"/><rect x="59" y="45" width="1" height="1" fill="#674949"/><rect x="4" y="46" width="1" height="1" fill="#3b7a33"/><rect x="5" y="46" width="2" height="1" fill="#57a64a"/><rect x="7" y="46" width="1" height="1" fill="#fff8e1"/><rect x="8" y="46" width="6" height="1" fill="#57a64a"/><rect x="14" y="46" width="1" height="1" fill="#3b7a33"/><rect x="15" y="46" width="1" height="1" fill="#0d0b0d"/><rect x="16" y="46" width="8" height="1" fill="#a9a9b4"/><rect x="24" y="46" width="16" height="1" fill="#0d0b0d"/><rect x="40" y="46" width="8" height="1" fill="#a9a9b4"/><rect x="48" y="46" width="4" height="1" fill="#0d0b0d"/><rect x="52" y="46" width="7" height="1" fill="#1b1119"/><rect x="59" y="46" width="1" height="1" fill="#674949"/><rect x="5" y="47" width="1" height="1" fill="#3b7a33"/><rect x="6" y="47" width="6" height="1" fill="#57a64a"/><rect x="12" y="47" width="1" height="1" fill="#fff8e1"/><rect x="13" y="47" width="2" height="1" fill="#57a64a"/><rect x="15" y="47" width="1" height="1" fill="#3b7a33"/><rect x="16" y="47" width="4" height="1" fill="#f0d5c4"/><rect x="20" y="47" width="24" height="1" fill="#a9a9b4"/><rect x="44" y="47" width="4" height="1" fill="#f0d5c4"/><rect x="48" y="47" width="4" height="1" fill="#0d0b0d"/><rect x="52" y="47" width="6" height="1" fill="#1b1119"/><rect x="58" y="47" width="1" height="1" fill="#674949"/><rect x="5" y="48" width="1" height="1" fill="#3b7a33"/><rect x="6" y="48" width="3" height="1" fill="#57a64a"/><rect x="9" y="48" width="3" height="1" fill="#fff8e1"/><rect x="12" y="48" width="1" height="1" fill="#57a64a"/><rect x="13" y="48" width="1" height="1" fill="#fff8e1"/><rect x="14" y="48" width="2" height="1" fill="#57a64a"/><rect x="16" y="48" width="1" height="1" fill="#3b7a33"/><rect x="17" y="48" width="3" height="1" fill="#f0d5c4"/><rect x="20" y="48" width="24" height="1" fill="#a9a9b4"/><rect x="44" y="48" width="4" height="1" fill="#f0d5c4"/><rect x="48" y="48" width="4" height="1" fill="#0d0b0d"/><rect x="52" y="48" width="6" height="1" fill="#1b1119"/><rect x="58" y="48" width="1" height="1" fill="#674949"/><rect x="6" y="49" width="1" height="1" fill="#3b7a33"/><rect x="7" y="49" width="2" height="1" fill="#57a64a"/><rect x="9" y="49" width="2" height="1" fill="#fff8e1"/><rect x="11" y="49" width="3" height="1" fill="#57a64a"/><rect x="14" y="49" width="1" height="1" fill="#fff8e1"/><rect x="15" y="49" width="2" height="1" fill="#57a64a"/><rect x="17" y="49" width="2" height="1" fill="#3b7a33"/><rect x="19" y="49" width="1" height="1" fill="#f0d5c4"/><rect x="20" y="49" width="24" height="1" fill="#a9a9b4"/><rect x="44" y="49" width="2" height="1" fill="#f0d5c4"/><rect x="46" y="49" width="2" height="1" fill="#3b7a33"/><rect x="48" y="49" width="4" height="1" fill="#0d0b0d"/><rect x="52" y="49" width="5" height="1" fill="#1b1119"/><rect x="57" y="49" width="1" height="1" fill="#3b7a33"/><rect x="7" y="50" width="1" height="1" fill="#3b7a33"/><rect x="8" y="50" width="6" height="1" fill="#57a64a"/><rect x="14" y="50" width="2" height="1" fill="#fff8e1"/><rect x="16" y="50" width="2" height="1" fill="#57a64a"/><rect x="18" y="50" width="2" height="1" fill="#3b7a33"/><rect x="20" y="50" width="24" height="1" fill="#a9a9b4"/><rect x="44" y="50" width="2" height="1" fill="#3b7a33"/><rect x="46" y="50" width="6" height="1" fill="#57a64a"/><rect x="52" y="50" width="5" height="1" fill="#3b7a33"/><rect x="7" y="51" width="2" height="1" fill="#3b7a33"/><rect x="9" y="51" width="4" height="1" fill="#57a64a"/><rect x="13" y="51" width="2" height="1" fill="#fff8e1"/><rect x="15" y="51" width="1" height="1" fill="#57a64a"/><rect x="16" y="51" width="1" height="1" fill="#fff8e1"/><rect x="17" y="51" width="3" height="1" fill="#57a64a"/><rect x="20" y="51" width="2" height="1" fill="#3b7a33"/><rect x="22" y="51" width="2" height="1" fill="#6a6a76"/><rect x="24" y="51" width="16" height="1" fill="#a9a9b4"/><rect x="40" y="51" width="2" height="1" fill="#6a6a76"/><rect x="42" y="51" width="2" height="1" fill="#3b7a33"/><rect x="44" y="51" width="11" height="1" fill="#57a64a"/><rect x="55" y="51" width="2" height="1" fill="#3b7a33"/><rect x="8" y="52" width="1" height="1" fill="#3b7a33"/><rect x="9" y="52" width="3" height="1" fill="#57a64a"/><rect x="12" y="52" width="2" height="1" fill="#fff8e1"/><rect x="14" y="52" width="4" height="1" fill="#57a64a"/><rect x="18" y="52" width="1" height="1" fill="#fff8e1"/><rect x="19" y="52" width="3" height="1" fill="#57a64a"/><rect x="22" y="52" width="2" height="1" fill="#3b7a33"/><rect x="24" y="52" width="16" height="1" fill="#a9a9b4"/><rect x="40" y="52" width="2" height="1" fill="#3b7a33"/><rect x="42" y="52" width="13" height="1" fill="#57a64a"/><rect x="55" y="52" width="1" height="1" fill="#3b7a33"/><rect x="9" y="53" width="1" height="1" fill="#3b7a33"/><rect x="10" y="53" width="2" height="1" fill="#57a64a"/><rect x="12" y="53" width="1" height="1" fill="#fff8e1"/><rect x="13" y="53" width="4" height="1" fill="#57a64a"/><rect x="17" y="53" width="1" height="1" fill="#fff8e1"/><rect x="18" y="53" width="1" height="1" fill="#57a64a"/><rect x="19" y="53" width="2" height="1" fill="#fff8e1"/><rect x="21" y="53" width="3" height="1" fill="#57a64a"/><rect x="24" y="53" width="3" height="1" fill="#3b7a33"/><rect x="27" y="53" width="10" height="1" fill="#a9a9b4"/><rect x="37" y="53" width="3" height="1" fill="#3b7a33"/><rect x="40" y="53" width="14" height="1" fill="#57a64a"/><rect x="54" y="53" width="1" height="1" fill="#3b7a33"/><rect x="10" y="54" width="1" height="1" fill="#3b7a33"/><rect x="11" y="54" width="5" height="1" fill="#57a64a"/><rect x="16" y="54" width="1" height="1" fill="#fff8e1"/><rect x="17" y="54" width="3" height="1" fill="#57a64a"/><rect x="20" y="54" width="1" height="1" fill="#fff8e1"/><rect x="21" y="54" width="6" height="1" fill="#57a64a"/><rect x="27" y="54" width="10" height="1" fill="#3b7a33"/><rect x="37" y="54" width="5" height="1" fill="#57a64a"/><rect x="42" y="54" width="1" height="1" fill="#fff8e1"/><rect x="43" y="54" width="10" height="1" fill="#57a64a"/><rect x="53" y="54" width="1" height="1" fill="#3b7a33"/><rect x="11" y="55" width="2" height="1" fill="#3b7a33"/><rect x="13" y="55" width="3" height="1" fill="#57a64a"/><rect x="16" y="55" width="1" height="1" fill="#fff8e1"/><rect x="17" y="55" width="3" height="1" fill="#57a64a"/><rect x="20" y="55" width="1" height="1" fill="#fff8e1"/><rect x="21" y="55" width="1" height="1" fill="#57a64a"/><rect x="22" y="55" width="1" height="1" fill="#fff8e1"/><rect x="23" y="55" width="16" height="1" fill="#57a64a"/><rect x="39" y="55" width="1" height="1" fill="#fff8e1"/><rect x="40" y="55" width="2" height="1" fill="#57a64a"/><rect x="42" y="55" width="1" height="1" fill="#fff8e1"/><rect x="43" y="55" width="8" height="1" fill="#57a64a"/><rect x="51" y="55" width="2" height="1" fill="#3b7a33"/><rect x="12" y="56" width="2" height="1" fill="#3b7a33"/><rect x="14" y="56" width="2" height="1" fill="#57a64a"/><rect x="16" y="56" width="2" height="1" fill="#fff8e1"/><rect x="18" y="56" width="1" height="1" fill="#57a64a"/><rect x="19" y="56" width="2" height="1" fill="#fff8e1"/><rect x="21" y="56" width="1" height="1" fill="#57a64a"/><rect x="22" y="56" width="1" height="1" fill="#fff8e1"/><rect x="23" y="56" width="3" height="1" fill="#57a64a"/><rect x="26" y="56" width="1" height="1" fill="#fff8e1"/><rect x="27" y="56" width="1" height="1" fill="#57a64a"/><rect x="28" y="56" width="3" height="1" fill="#fff8e1"/><rect x="31" y="56" width="2" height="1" fill="#57a64a"/><rect x="33" y="56" width="4" height="1" fill="#fff8e1"/><rect x="37" y="56" width="2" height="1" fill="#57a64a"/><rect x="39" y="56" width="1" height="1" fill="#fff8e1"/><rect x="40" y="56" width="1" height="1" fill="#57a64a"/><rect x="41" y="56" width="1" height="1" fill="#fff8e1"/><rect x="42" y="56" width="8" height="1" fill="#57a64a"/><rect x="50" y="56" width="2" height="1" fill="#3b7a33"/><rect x="14" y="57" width="1" height="1" fill="#3b7a33"/><rect x="15" y="57" width="3" height="1" fill="#57a64a"/><rect x="18" y="57" width="1" height="1" fill="#fff8e1"/><rect x="19" y="57" width="2" height="1" fill="#57a64a"/><rect x="21" y="57" width="4" height="1" fill="#fff8e1"/><rect x="25" y="57" width="1" height="1" fill="#57a64a"/><rect x="26" y="57" width="3" height="1" fill="#fff8e1"/><rect x="29" y="57" width="2" height="1" fill="#57a64a"/><rect x="31" y="57" width="1" height="1" fill="#fff8e1"/><rect x="32" y="57" width="1" height="1" fill="#57a64a"/><rect x="33" y="57" width="1" height="1" fill="#fff8e1"/><rect x="34" y="57" width="3" height="1" fill="#57a64a"/><rect x="37" y="57" width="1" height="1" fill="#fff8e1"/><rect x="38" y="57" width="1" height="1" fill="#57a64a"/><rect x="39" y="57" width="5" height="1" fill="#fff8e1"/><rect x="44" y="57" width="5" height="1" fill="#57a64a"/><rect x="49" y="57" width="1" height="1" fill="#3b7a33"/><rect x="15" y="58" width="2" height="1" fill="#3b7a33"/><rect x="17" y="58" width="4" height="1" fill="#57a64a"/><rect x="21" y="58" width="2" height="1" fill="#fff8e1"/><rect x="23" y="58" width="1" height="1" fill="#57a64a"/><rect x="24" y="58" width="2" height="1" fill="#fff8e1"/><rect x="26" y="58" width="1" height="1" fill="#57a64a"/><rect x="27" y="58" width="2" height="1" fill="#fff8e1"/><rect x="29" y="58" width="2" height="1" fill="#57a64a"/><rect x="31" y="58" width="7" height="1" fill="#fff8e1"/><rect x="38" y="58" width="2" height="1" fill="#57a64a"/><rect x="40" y="58" width="1" height="1" fill="#fff8e1"/><rect x="41" y="58" width="3" height="1" fill="#57a64a"/><rect x="44" y="58" width="1" height="1" fill="#fff8e1"/><rect x="45" y="58" width="2" height="1" fill="#57a64a"/><rect x="47" y="58" width="2" height="1" fill="#3b7a33"/><rect x="17" y="59" width="2" height="1" fill="#3b7a33"/><rect x="19" y="59" width="6" height="1" fill="#57a64a"/><rect x="25" y="59" width="1" height="1" fill="#fff8e1"/><rect x="26" y="59" width="1" height="1" fill="#57a64a"/><rect x="27" y="59" width="1" height="1" fill="#fff8e1"/><rect x="28" y="59" width="3" height="1" fill="#57a64a"/><rect x="31" y="59" width="1" height="1" fill="#fff8e1"/><rect x="32" y="59" width="1" height="1" fill="#57a64a"/><rect x="33" y="59" width="2" height="1" fill="#fff8e1"/><rect x="35" y="59" width="2" height="1" fill="#57a64a"/><rect x="37" y="59" width="1" height="1" fill="#fff8e1"/><rect x="38" y="59" width="2" height="1" fill="#57a64a"/><rect x="40" y="59" width="1" height="1" fill="#fff8e1"/><rect x="41" y="59" width="4" height="1" fill="#57a64a"/><rect x="45" y="59" width="2" height="1" fill="#3b7a33"/><rect x="19" y="60" width="2" height="1" fill="#3b7a33"/><rect x="21" y="60" width="4" height="1" fill="#57a64a"/><rect x="25" y="60" width="1" height="1" fill="#fff8e1"/><rect x="26" y="60" width="2" height="1" fill="#57a64a"/><rect x="28" y="60" width="3" height="1" fill="#fff8e1"/><rect x="31" y="60" width="3" height="1" fill="#57a64a"/><rect x="34" y="60" width="1" height="1" fill="#fff8e1"/><rect x="35" y="60" width="3" height="1" fill="#57a64a"/><rect x="38" y="60" width="1" height="1" fill="#fff8e1"/><rect x="39" y="60" width="4" height="1" fill="#57a64a"/><rect x="43" y="60" width="2" height="1" fill="#3b7a33"/><rect x="21" y="61" width="3" height="1" fill="#3b7a33"/><rect x="24" y="61" width="16" height="1" fill="#57a64a"/><rect x="40" y="61" width="3" height="1" fill="#3b7a33"/><rect x="24" y="62" width="16" height="1" fill="#3b7a33"/></svg>
